<svg class="css-rt6ihi" viewBox="0 0 56.700010299682624 56.7" xmlns="http://www.w3.org/2000/svg" xmlns:xlink="http://www.w3.org/1999/xlink"><g transform="translate(-0.00001735570131131681, -24.30000514984131) scale(1.35)" fill="#0278ae"><path d="M33.78 60 c-4.38 0 -9.54 -3.12 -15.42 -9.3 l0 1.74 c0 2.22 -0.9 7.56 -9 7.56 c-8.46 0 -9.36 -5.34 -9.36 -7.56 l0 -21.9 c0 -6.24 -0.06 -12.54 8.34 -12.54 c4.68 0 10.56 4.62 15.3 9.54 l0 -1.98 c0 -2.82 1.2 -7.56 9.24 -7.56 c5.76 0 9.12 3 9.12 7.8 l0 23.58 c0 5.82 -0.6 10.62 -8.22 10.62 z M18.36 36.72 l0 7.8 c6.24 7.44 11.58 11.34 15.42 11.34 c2.7 0 3.18 -0.72 3.36 -1.02 c0.66 -1.02 0.72 -3.24 0.72 -5.46 l0 -23.58 c0 -0.9 0 -3.66 -4.98 -3.66 c-5.04 0 -5.1 2.16 -5.1 3.42 l0 6.54 c2.22 2.58 3.84 4.8 4.74 6.06 c1.68 2.34 1.98 4.86 0.96 6.78 c-2.22 4.5 -9.84 3.6 -9.84 -3.66 l0 -7.62 c-6.48 -7.26 -11.94 -11.52 -15.3 -11.52 c-3.6 0 -4.2 0.72 -4.2 8.4 l0 21.9 c0 1.2 0 3.42 5.22 3.42 c4.8 0 4.86 -2.22 4.86 -3.42 l0 -6.42 c-2.22 -2.64 -3.84 -4.98 -4.74 -6.12 c-1.74 -2.46 -2.04 -4.8 -1.02 -6.96 c2.4 -4.5 9.9 -3.66 9.9 3.78 z M27.78 38.7 c0 2.1 -0.3 4.8 1.2 4.8 c0.42 0 0.72 -0.18 0.84 -0.48 c0.66 -1.14 -1.08 -3.06 -2.04 -4.32 z M12.18 34.86 c-0.66 1.32 1.08 3.06 2.04 4.5 l0 -2.64 c0 -3 -1.56 -2.64 -2.04 -1.86 z"></path></g></svg>